<svg width="197px" height="40px" viewBox="0 0 197 40" version="1.1" xmlns:xlink="http://www.w3.org/1999/xlink" xmlns="http://www.w3.org/2000/svg">
  <title>myGov Code Generator logo</title>
  <g id="Logo">
    <path d="M0 0L196.01 0L196.01 40L0 40L0 0Z" transform="translate(0.9899498 0)" id="Rectangle" fill="none" stroke="none" />
    <path d="M190.111 14.3262L191.793 14.3262L191.793 7.99807C191.793 6.5625 192.644 5.61523 193.948 5.61523C194.355 5.61523 194.713 5.66406 194.848 5.71289L194.848 4.0625C194.713 4.04297 194.461 3.99414 194.171 3.99414C192.992 3.99414 192.064 4.70703 191.735 5.83007L191.696 5.83007L191.696 4.16992L190.111 4.16992L190.111 14.3262L190.111 14.3262ZM183.769 14.502C186.544 14.502 188.42 12.4805 188.42 9.24807C188.42 6.00586 186.544 3.99414 183.769 3.99414C180.985 3.99414 179.109 6.00586 179.109 9.24807C179.109 12.4805 180.985 14.502 183.769 14.502L183.769 14.502ZM183.769 13.0078C181.99 13.0078 180.821 11.6407 180.821 9.24807C180.821 6.85547 181.99 5.48828 183.769 5.48828C185.548 5.48828 186.708 6.85547 186.708 9.24807C186.708 11.6407 185.548 13.0078 183.769 13.0078L183.769 13.0078ZM174.179 1.71875L174.179 4.16992L172.68 4.16992L172.68 5.5664L174.179 5.5664L174.179 11.6895C174.179 13.6426 174.894 14.4043 176.741 14.4043C177.137 14.4043 177.601 14.375 177.804 14.3262L177.804 12.9004C177.689 12.9199 177.301 12.9492 177.108 12.9492C176.248 12.9492 175.861 12.5293 175.861 11.6016L175.861 5.5664L177.814 5.5664L177.814 4.16992L175.861 4.16992L175.861 1.71875L174.179 1.71875L174.179 1.71875ZM167.015 13.0567C165.807 13.0567 165.004 12.4219 165.004 11.4551C165.004 10.4981 165.777 9.89257 167.132 9.80467L169.818 9.63867L169.818 10.4688C169.818 11.9336 168.601 13.0567 167.015 13.0567L167.015 13.0567ZM166.639 14.502C167.992 14.502 169.268 13.7403 169.867 12.5782L169.906 12.5782L169.906 14.3262L171.501 14.3262L171.501 7.30467C171.501 5.2832 170.012 3.99414 167.653 3.99414C165.276 3.99414 163.787 5.34179 163.671 7.09961L165.294 7.09961C165.507 6.10351 166.319 5.48828 167.615 5.48828C169.007 5.48828 169.818 6.23047 169.818 7.47067L169.818 8.32027L166.938 8.48637C164.618 8.62307 163.294 9.71677 163.294 11.4551C163.294 13.2813 164.637 14.502 166.639 14.502L166.639 14.502ZM157.599 14.3262L159.281 14.3262L159.281 7.99807C159.281 6.5625 160.132 5.61523 161.438 5.61523C161.843 5.61523 162.201 5.66406 162.336 5.71289L162.336 4.0625C162.201 4.04297 161.949 3.99414 161.659 3.99414C160.48 3.99414 159.552 4.70703 159.223 5.83007L159.184 5.83007L159.184 4.16992L157.599 4.16992L157.599 14.3262L157.599 14.3262ZM151.49 5.46875C153.074 5.46875 154.129 6.67968 154.167 8.37887L148.705 8.37887C148.812 6.68945 149.914 5.46875 151.49 5.46875L151.49 5.46875ZM154.129 11.416C153.849 12.3731 152.91 13.0274 151.634 13.0274C149.826 13.0274 148.696 11.7481 148.696 9.80467L148.696 9.70707L155.908 9.70707L155.908 9.06247C155.908 5.98632 154.235 3.99414 151.518 3.99414C148.743 3.99414 146.965 6.13281 146.965 9.28707C146.965 12.4805 148.715 14.502 151.595 14.502C153.79 14.502 155.492 13.1934 155.782 11.416L154.129 11.416L154.129 11.416ZM137.026 14.3262L138.709 14.3262L138.709 8.34957C138.709 6.63086 139.744 5.49804 141.329 5.49804C142.876 5.49804 143.639 6.39648 143.639 8.03707L143.639 14.3262L145.321 14.3262L145.321 7.73437C145.321 5.42968 144.045 3.99414 141.841 3.99414C140.285 3.99414 139.212 4.69726 138.651 5.79101L138.612 5.79101L138.612 4.16992L137.026 4.16992L137.026 14.3262L137.026 14.3262ZM130.917 5.46875C132.502 5.46875 133.557 6.67968 133.595 8.37887L128.133 8.37887C128.24 6.68945 129.341 5.46875 130.917 5.46875L130.917 5.46875ZM133.557 11.416C133.275 12.3731 132.338 13.0274 131.062 13.0274C129.254 13.0274 128.123 11.7481 128.123 9.80467L128.123 9.70707L135.336 9.70707L135.336 9.06247C135.336 5.98632 133.662 3.99414 130.946 3.99414C128.171 3.99414 126.392 6.13281 126.392 9.28707C126.392 12.4805 128.143 14.502 131.023 14.502C133.218 14.502 134.92 13.1934 135.21 11.416L133.557 11.416L133.557 11.416ZM124.923 8.49607L124.923 7.1582L119.249 7.1582L119.249 8.70117L123.183 8.70117L123.183 8.95507C123.183 11.3184 121.481 12.9395 119.006 12.9395C116.164 12.9395 114.405 10.7422 114.405 7.19726C114.405 3.71093 116.135 1.62109 119.006 1.62109C120.969 1.62109 122.429 2.70507 123.009 4.60937L124.836 4.60937C124.314 1.80664 122.023 0 119.006 0C115.101 0 112.616 2.80273 112.616 7.20703C112.616 11.6895 115.111 14.5606 119.006 14.5606C122.729 14.5606 124.923 12.3047 124.923 8.49607L124.923 8.49607ZM102.727 5.46875C104.312 5.46875 105.366 6.67968 105.404 8.37887L99.9428 8.37887C100.049 6.68945 101.151 5.46875 102.727 5.46875L102.727 5.46875ZM105.366 11.416C105.086 12.3731 104.148 13.0274 102.872 13.0274C101.063 13.0274 99.9329 11.7481 99.9329 9.80467L99.9329 9.70707L107.145 9.70707L107.145 9.06247C107.145 5.98632 105.472 3.99414 102.755 3.99414C99.9814 3.99414 98.2025 6.13281 98.2025 9.28707C98.2025 12.4805 99.9517 14.502 102.832 14.502C105.027 14.502 106.729 13.1934 107.019 11.416L105.366 11.416L105.366 11.416ZM91.5413 14.502C92.9915 14.502 94.1419 13.7793 94.7896 12.6074L94.8187 12.6074L94.8187 14.3262L96.4235 14.3262L96.4235 0.23437L94.7412 0.23437L94.7412 5.82031L94.7026 5.82031C94.1032 4.70703 92.9431 3.99414 91.5027 3.99414C88.9698 3.99414 87.2393 6.06445 87.2393 9.24807C87.2393 12.4317 88.9794 14.502 91.5413 14.502L91.5413 14.502ZM91.8604 5.48828C93.5908 5.48828 94.7509 6.98242 94.7509 9.24807C94.7509 11.5235 93.5908 13.0078 91.8604 13.0078C90.0816 13.0078 88.9601 11.5528 88.9601 9.24807C88.9601 6.95312 90.0816 5.48828 91.8604 5.48828L91.8604 5.48828ZM81.3905 14.502C84.165 14.502 86.0406 12.4805 86.0406 9.24807C86.0406 6.00586 84.165 3.99414 81.3905 3.99414C78.6062 3.99414 76.7308 6.00586 76.7308 9.24807C76.7308 12.4805 78.6062 14.502 81.3905 14.502L81.3905 14.502ZM81.3905 13.0078C79.6116 13.0078 78.4419 11.6407 78.4419 9.24807C78.4419 6.85547 79.6116 5.48828 81.3905 5.48828C83.1693 5.48828 84.3294 6.85547 84.3294 9.24807C84.3294 11.6407 83.1693 13.0078 81.3905 13.0078L81.3905 13.0078ZM69.6445 14.5606C72.7284 14.5606 74.7973 13.0078 75.4353 10.2246L73.6758 10.2246C73.1731 11.9434 71.7037 12.9395 69.6541 12.9395C66.8989 12.9395 65.1492 10.7324 65.1492 7.27539C65.1492 3.84765 66.9183 1.62109 69.6445 1.62109C71.636 1.62109 73.2311 2.83203 73.6758 4.67773L75.4353 4.67773C74.9907 1.86523 72.6801 0 69.6445 0C65.8259 0 63.3606 2.85156 63.3606 7.27539C63.3606 11.7383 65.7969 14.5606 69.6445 14.5606L69.6445 14.5606ZM58.2659 4.16992L56.5161 4.16992L53.7319 12.5196L53.6932 12.5196L50.9186 4.16992L49.1495 4.16992L52.8521 14.3262L54.5729 14.3262L58.2659 4.16992L58.2659 4.16992ZM43.6777 14.502C46.4522 14.502 48.3278 12.4805 48.3278 9.24807C48.3278 6.00586 46.4522 3.99414 43.6777 3.99414C40.8934 3.99414 39.018 6.00586 39.018 9.24807C39.018 12.4805 40.8934 14.502 43.6777 14.502L43.6777 14.502ZM43.6777 13.0078C41.8988 13.0078 40.7291 11.6407 40.7291 9.24807C40.7291 6.85547 41.8988 5.48828 43.6777 5.48828C45.4565 5.48828 46.6166 6.85547 46.6166 9.24807C46.6166 11.6407 45.4565 13.0078 43.6777 13.0078L43.6777 13.0078ZM37.5485 8.49607L37.5485 7.1582L31.8737 7.1582L31.8737 8.70117L35.8084 8.70117L35.8084 8.95507C35.8084 11.3184 34.1068 12.9395 31.632 12.9395C28.7897 12.9395 27.0303 10.7422 27.0303 7.19726C27.0303 3.71093 28.7608 1.62109 31.632 1.62109C33.5945 1.62109 35.0543 2.70507 35.6343 4.60937L37.4615 4.60937C36.9395 1.80664 34.6482 0 31.632 0C27.7263 0 25.2418 2.80273 25.2418 7.20703C25.2418 11.6895 27.736 14.5606 31.632 14.5606C35.354 14.5606 37.5485 12.3047 37.5485 8.49607L37.5485 8.49607ZM16.7344 18.125C18.5519 18.125 19.3833 17.4121 20.2437 15.0391L24.1977 4.16992L22.4286 4.16992L19.6443 12.627L19.6153 12.627L16.8311 4.16992L15.033 4.16992L18.7453 14.336L18.5132 15.0489C18.1266 16.2305 17.6045 16.6895 16.6668 16.6895C16.454 16.6895 16.193 16.6797 16.0093 16.6407L16.0093 18.0664C16.193 18.1055 16.5313 18.125 16.7344 18.125L16.7344 18.125ZM0 14.3262L1.68213 14.3262L1.68213 7.95897C1.68213 6.55273 2.64889 5.49804 3.983 5.49804C5.23011 5.49804 6.04217 6.29882 6.04217 7.51957L6.04217 14.3262L7.72431 14.3262L7.72431 7.87107C7.72431 6.49414 8.66206 5.49804 9.9962 5.49804C11.3207 5.49804 12.0843 6.31836 12.0843 7.70507L12.0843 14.3262L13.7665 14.3262L13.7665 7.31447C13.7665 5.30273 12.4807 3.99414 10.4892 3.99414C9.07772 3.99414 7.89833 4.71679 7.33762 5.92773L7.29894 5.92773C6.86391 4.69726 5.84882 3.99414 4.47604 3.99414C3.12259 3.99414 2.09784 4.71679 1.62413 5.79101L1.58546 5.79101L1.58546 4.16992L0 4.16992L0 14.3262L0 14.3262Z" transform="translate(0 10.9375)" id="myGov-Code-Generator" fill="#FFFFFF" stroke="green" />
  </g>
</svg>